<svg width="113" height="96" viewBox="0 0 113 96" fill="none" xmlns="http://www.w3.org/2000/svg">
<g clip-path="url(#clip0_2523_997)">
<path d="M39.1202 95.0598C43.8202 95.1898 48.3702 95.3698 53.1402 95.2998C58.1902 95.2298 63.1202 95.2098 68.1102 94.0598C69.3302 93.7798 77.3802 91.7698 74.0702 89.6298C72.8102 88.8198 68.0402 89.5098 66.4302 89.8398C58.9002 91.4098 51.0902 91.9998 43.3902 91.3598C40.1602 91.0898 34.2702 90.5798 31.4902 88.8998C29.8602 87.9198 26.5002 84.1898 24.8802 84.1698C24.1302 84.1698 23.6302 84.5398 22.6102 84.3498C22.0902 84.2498 18.1502 82.1298 17.5902 81.7298C15.1202 79.9598 12.2902 75.1598 10.7602 72.5798C8.24018 68.3198 6.38018 64.2298 4.41018 59.6898C4.26018 58.8798 4.94018 58.2698 5.14017 57.5098C5.69018 55.3498 4.55018 50.3898 4.84018 47.4798C5.03018 45.5298 6.69018 43.6098 5.84018 41.6298C5.48018 40.7798 4.40018 41.1298 3.91018 41.8098C3.26018 42.7098 1.89018 45.3698 1.70018 46.4298C1.51018 47.4898 1.69018 48.4798 1.54018 49.5098C1.25018 51.5298 -0.269829 54.1798 0.0301743 56.2198C0.160172 57.1098 0.800179 58.0598 0.900177 59.0498C1.10017 61.0198 0.110176 62.0098 0.730179 64.0798C2.03018 68.4498 5.16018 75.0298 7.98018 78.5998C9.22018 80.1698 15.3902 84.5398 17.3402 85.0998C18.7202 85.6998 20.1702 86.1998 21.6902 86.5898C23.5102 88.5298 25.5302 90.1898 27.7602 91.5798C30.8102 93.8898 35.2602 94.9498 39.1102 95.0498L39.1202 95.0598Z" fill="#020202" fill-opacity="0.2"/>
<path d="M4.3801 37.6299C5.5901 38.4099 7.3201 38.9599 7.5401 37.0199C8.1801 31.4799 10.8801 28.8399 12.9801 24.1299C14.2901 21.1899 13.9901 20.0499 16.6401 17.5999C17.7001 16.6199 19.9101 14.3799 20.8201 13.6799C21.3701 13.2599 23.0201 12.9799 23.8701 12.5599C26.6601 11.1899 28.1801 8.08992 31.2301 6.36992C33.4701 5.38992 35.7801 4.84992 38.1801 4.74992C39.9401 4.40992 42.9001 3.94992 44.6601 3.81992C46.6501 3.65992 48.6101 3.34992 50.5501 2.86992C52.2901 3.19992 54.0301 3.43992 55.7701 3.58992C56.5401 3.75992 56.9001 3.74992 57.6201 3.81992C60.1501 3.32992 62.7001 3.32992 65.2601 3.81992C66.8501 4.26992 68.3401 4.88992 69.8901 5.43992C74.3301 7.56992 78.9501 9.25992 83.6201 10.7699C86.4101 11.8099 88.4901 14.0899 90.3801 16.3099L94.1701 21.2899L94.9001 21.4099C96.1701 22.0699 97.0801 22.5799 98.6001 22.3299C98.3001 16.8799 94.3701 12.6999 89.8701 10.0999C88.3601 9.22992 86.6801 8.76992 85.2401 8.00992C83.2501 6.95992 81.4801 5.45992 79.3701 4.61992C77.1101 3.70992 69.0001 0.859919 66.9601 0.819919C65.9201 0.799919 65.1001 1.54992 64.4501 1.60992C63.8001 1.66992 60.1901 1.59992 59.5801 1.47992C59.1201 1.38992 58.7101 0.839919 58.1401 0.609919C54.7701 -0.790081 48.0201 0.529919 44.2901 0.789919C42.6201 0.909919 40.5501 0.569919 38.9801 0.809919C37.8501 0.979919 33.3301 2.70992 32.2101 3.29992C30.4001 4.24992 28.9001 5.97992 27.2501 6.90992C23.7701 8.86992 20.4901 11.1299 17.0101 13.1099C14.6801 14.4399 13.3201 14.3999 11.4101 16.7699C9.8601 18.6999 10.1501 20.4599 9.1501 22.6099C8.3101 24.4099 6.5901 25.9199 5.9601 27.7599C5.3301 29.5999 5.3001 31.7899 4.9401 33.6899C4.60011 35.4799 4.48009 35.7299 4.3501 37.6099L4.3801 37.6299Z" fill="#020202" fill-opacity="0.2"/>
<path d="M105.34 35.5501C107.74 40.9901 108.18 47.3701 108.33 53.2401L107.89 54.3101C106.66 55.3601 107.02 56.1001 106.51 57.4501C103.83 64.5101 100.83 70.4201 95.7399 76.0801C93.6099 78.4501 91.9899 78.5301 90.0599 80.1201C88.9699 81.0101 89.0799 81.7501 88.4499 82.6701C88.1799 83.0601 86.0899 85.3501 85.7499 85.5301C84.7699 86.0701 83.2699 86.0301 82.1999 86.3801C80.9299 86.7901 78.4899 87.6701 77.3299 88.2301C76.4399 88.6601 75.07 89.4701 75.9199 90.5701C76.9599 91.9101 78.4199 90.3601 79.3099 90.2101C81.3499 89.8801 83.6799 90.4501 85.8999 89.9701C87.5999 89.6001 88.2399 88.7101 89.5999 87.8901C92.2499 85.6501 95.0299 83.5701 97.9399 81.6401C98.5599 80.9601 99.0399 80.6101 99.5599 79.7901C100.8 77.8001 102.11 75.8701 103.5 74.0001C104.09 73.0001 104.88 72.4001 105.39 71.1501C106.15 69.2901 106.02 67.2401 106.73 65.5501C107.22 64.4001 108.14 63.9601 108.63 63.0601C108.98 62.4301 110.47 58.4801 110.43 57.9501C110.39 57.4901 109.95 56.9001 110.02 56.5601C110.09 56.2201 110.71 55.9901 110.85 55.5501C111.36 53.9301 112.37 49.2901 112.29 47.7101C112.07 43.4301 110.29 38.7001 109.49 34.5301C108.82 31.0301 107.29 30.8601 105.2 28.7501C104.09 27.6301 100.98 23.7701 99.6199 23.5401C98.2599 23.3101 98.2699 24.6901 98.6599 25.6801C99.6299 28.1401 102.33 29.6401 103.69 31.7601C104.44 32.9301 104.88 34.2801 105.35 35.5401L105.34 35.5501Z" fill="#020202" fill-opacity="0.2"/>
<path d="M89.5999 87.8799C92.9199 85.8799 95.2999 84.5599 97.9399 81.6299C95.0299 83.5599 91.3899 84.6399 89.5999 87.8799Z" fill="#CCC1B4"/>
<path d="M47.22 64.0301C48.7 67.5101 50.75 62.2601 52.19 62.1901C52.73 62.1601 54.37 62.9801 55.24 63.0801C56.32 63.2001 57.87 62.8901 58.82 63.2101C59.09 63.3001 60.32 64.6101 60.66 64.9601C61.49 66.8101 61.88 68.8201 61.82 70.9801C61.61 72.6401 60.21 74.6601 58.44 74.9001C57.62 75.0101 56.06 75.1201 55.22 75.1501C53.42 75.2001 51.95 75.2301 50.32 74.3901C49.62 73.1401 47.35 71.7401 47.48 70.2101C47.56 69.2701 48.79 68.0901 48.19 67.1601C47.66 66.3501 46.54 66.4001 45.85 67.0501C44.15 70.2501 42.87 70.9901 45.63 74.3401C48.39 77.6901 53.86 79.3601 58.08 78.4701C58.45 78.3901 59.94 77.8601 60.15 77.6501C60.4 77.3901 63.17 73.9401 63.27 73.7101C64.07 71.9601 64.25 67.9701 63.82 66.1201C63.1 63.0301 58.74 60.1401 55.7 59.8901C54.1 59.7601 49.48 60.4301 48.29 61.5001C47.52 62.1901 47.48 63.2201 47.26 64.0501L47.22 64.0301Z" fill="#030303" fill-opacity="0.2"/>
<path d="M27.08 35.3199C28.74 35.5099 30.15 34.3799 28.59 32.9999C28.07 32.5399 27.43 32.9799 27.55 31.7499C27.59 31.3199 29.81 27.4399 30.2 26.9699C31.33 25.5799 35.49 23.8099 37.27 23.7399C39.06 24.0199 40.72 24.6299 41.67 26.2899C42.08 27.2299 42.57 28.5599 42.36 29.6399C42.3 29.9599 40.72 32.2799 40.39 32.5399C38.63 33.9499 34.88 33.2899 32.58 33.7599C30.28 34.2299 32.37 36.0899 33.57 36.7099C35.22 36.6199 39.36 35.7999 40.73 34.9499C41.76 34.3099 45.15 30.1499 45.08 28.9899C45.07 28.7899 44.45 26.5899 44.34 26.2899C42.94 22.5599 38.98 21.1499 35.27 22.0899C34.3 22.3299 29.77 23.9599 29.28 24.4299C28.6 25.0799 26.77 27.1999 26.35 27.9799C25.29 29.9199 24.18 33.2999 26.18 34.9699C26.52 35.2499 26.93 35.2199 27.09 35.3299L27.08 35.3199Z" fill="#050404" fill-opacity="0.2"/>
<path d="M72.2299 21.6599C74.6699 21.7399 75.8199 20.3899 74.0699 18.4599C72.4199 18.2399 70.7599 18.0599 69.0899 17.9099C66.1899 16.3099 65.0799 15.5199 68.2899 13.3599C69.9299 12.2499 70.9099 12.2999 72.9199 12.3999L73.3799 11.9399C75.8999 12.3799 78.2699 13.2599 79.1699 15.8799C78.1199 16.2599 76.0099 18.3099 76.5399 19.4599C76.8399 20.0999 77.6899 20.6699 78.2399 20.0399C78.9399 19.5799 79.5499 19.7399 80.3199 18.7699C82.7199 15.7699 80.7099 13.3999 79.3899 10.5499C79.0899 10.4299 78.7299 10.1499 78.4599 10.0899C76.6499 9.64989 74.9499 10.0899 73.2599 9.83989C72.6699 9.74989 72.0399 9.31989 71.3299 9.21989C69.6899 8.97989 67.9299 9.41989 66.5699 10.3499C64.8899 11.4999 65.2699 12.1999 64.6699 13.7799C64.1799 15.0799 63.4499 15.5099 63.6499 17.1199C63.8799 18.9699 66.2499 20.1699 67.7999 20.8399C69.4399 21.5499 70.3999 22.0799 72.1999 21.6499L72.2299 21.6599Z" fill="#050404" fill-opacity="0.2"/>
<path d="M81.7201 42.7299C80.8401 44.0699 83.0001 43.7499 83.8601 43.3199C84.7701 42.6599 85.7001 42.4399 86.6701 42.6699L87.0501 42.2699C89.5401 43.0999 91.0001 44.7099 91.9101 47.1299L91.6301 47.2999C92.8101 51.7999 88.6401 52.5499 85.3801 50.6699C82.8001 50.9699 81.5501 49.4799 81.6301 46.2099C81.2501 45.0099 80.5901 43.2699 79.4101 44.8199C79.3001 44.9699 78.8501 45.1199 78.7001 45.3799C78.1101 46.4199 78.6101 48.5399 78.9401 49.6799C80.6001 53.6299 85.9401 55.0299 89.8201 54.0799C93.7401 53.8999 95.2401 50.3299 94.9201 46.7799C94.7101 44.4599 93.9401 44.8899 92.9501 43.6499C92.6101 43.2199 92.6001 42.6399 92.3301 42.1899C91.1601 40.2699 84.0501 39.2899 82.5301 41.1199C82.2301 41.4799 81.9401 42.5499 81.7101 42.7299H81.7201Z" fill="#040303" fill-opacity="0.2"/>
<path d="M16.1901 51.9898C16.0101 53.4498 18.6501 51.8698 18.5101 50.8298C19.2201 50.8798 19.8401 51.1898 20.3601 51.7598L20.0301 52.1398C21.1301 54.4498 21.6301 55.6198 19.1201 57.1698C17.2801 58.3098 14.7001 56.6498 16.4501 54.6998C16.7701 53.8998 16.0601 52.5798 15.2601 53.1398C14.2401 53.5998 13.7201 53.3698 13.0901 54.7798C11.7101 57.8598 15.4301 60.8298 18.3901 60.5498C21.1101 60.2798 23.8501 57.0998 23.8501 54.4098C23.8501 53.4498 22.5401 49.6798 21.9201 49.0298C21.3001 48.3798 18.8401 48.1698 17.9501 48.5298C15.9501 49.3398 16.5101 50.5198 16.1901 51.9798V51.9898Z" fill="#060404" fill-opacity="0.2"/>
<path d="M59.3302 35.1401C58.3802 34.9201 54.7202 35.9201 53.6502 36.3101C52.9302 36.5701 52.0602 37.1201 51.5002 37.6401C51.1902 37.9201 48.7202 40.8301 48.6502 41.0401C48.2302 42.4501 49.0902 44.4801 50.6802 43.3001C51.3302 42.8201 51.6302 41.5101 52.3002 40.7501C52.5502 40.4701 55.5202 38.2201 55.8502 38.0501C57.2502 37.3301 57.8202 37.8001 59.1302 37.8701C62.1202 38.0301 61.2002 35.5601 59.3202 35.1301L59.3302 35.1401Z" fill="#050504" fill-opacity="0.2"/>
<path d="M86.6303 27.4999C85.5203 27.3999 83.5403 28.1199 83.5703 29.4199C83.6003 30.8699 85.6703 29.6499 86.0603 29.5699C87.3903 29.2999 87.7003 30.0699 88.6603 30.3399C89.4203 30.5599 90.0903 30.4999 90.9803 30.7999C92.2803 31.2399 95.7903 34.3099 96.4403 31.8499C96.7503 30.6999 94.7203 29.3399 93.8103 28.8999C92.9003 28.4599 87.9303 27.6199 86.6303 27.4999Z" fill="#060505" fill-opacity="0.2"/>
<path d="M32.5998 67.3098C31.8898 66.1698 26.7999 68.8898 26.0399 69.5898C24.8699 70.6698 23.9999 73.4598 25.9399 74.1098C27.1199 74.5098 27.9799 71.2198 28.9499 70.6398C30.1299 69.9298 32.2998 70.3198 32.6298 68.5298C32.6798 68.2598 32.7299 67.4898 32.6099 67.3098H32.5998Z" fill="#070605" fill-opacity="0.2"/>
<path d="M80.6399 72.5302C82.1499 74.4002 84.0999 70.0802 85.4399 69.2502C86.3299 68.7002 88.1999 69.0902 88.1899 67.6202C88.1899 67.0702 87.3599 66.1102 86.8399 66.0002C86.2499 65.8702 81.6699 68.5602 81.1399 69.1302C80.3899 69.9402 79.8999 71.6402 80.6299 72.5402L80.6399 72.5302Z" fill="#070504" fill-opacity="0.2"/>
<path d="M46.35 9.43014C45.63 9.33014 43.74 9.68014 43.01 9.91014C41.65 10.3401 38.16 12.9501 39.7 14.4801C41.24 16.0101 43.34 11.1301 45.55 12.1001C45.85 12.2301 46.36 12.8501 46.42 12.8501C46.5 12.8501 47.52 11.8201 47.57 11.6901C48.05 10.6601 47.5 9.58014 46.35 9.42014V9.43014Z" fill="#070605" fill-opacity="0.2"/>
<path d="M12.7501 38.7601C12.8501 38.9201 13.7201 39.0401 13.9801 39.0401C15.5301 39.0101 15.0201 38.0201 15.4401 37.0101C15.9101 35.8801 17.4001 35.0801 17.7001 33.9401C18.2301 31.9201 16.2001 31.8501 15.0301 33.1301C14.3501 33.8701 12.2401 37.9601 12.7501 38.7701V38.7601Z" fill="#0A0806" fill-opacity="0.2"/>
<path d="M18.3899 51.1701L20.0299 52.1501L20.3599 51.7701C19.8699 50.7901 18.4099 50.0901 18.3899 51.1801V51.1701Z" fill="#060404" fill-opacity="0.2"/>
</g>
<defs>
<clipPath id="clip0_2523_997">
<rect width="112.29" height="95.32" fill="white" transform="matrix(-1 0 0 1 112.29 0)"/>
</clipPath>
</defs>
</svg>
