<svg width="50" height="50" viewBox="0 0 50 50" fill="none" xmlns="http://www.w3.org/2000/svg">
<path d="M15.0139 49.9999C13.6376 49.9999 12.4598 49.5108 11.4806 48.5324C10.5014 47.5541 10.0109 46.3766 10.0092 44.9999C10.0076 43.6233 10.498 42.4466 11.4806 41.4699C12.4632 40.4933 13.6409 40.0033 15.0139 39.9999C16.3868 39.9966 17.5654 40.4866 18.5496 41.4699C19.5339 42.4533 20.0235 43.6299 20.0185 44.9999C20.0135 46.3699 19.5239 47.5474 18.5496 48.5324C17.5754 49.5174 16.3968 50.0066 15.0139 49.9999ZM40.037 49.9999C38.6607 49.9999 37.483 49.5108 36.5037 48.5324C35.5245 47.5541 35.034 46.3766 35.0324 44.9999C35.0307 43.6233 35.5212 42.4466 36.5037 41.4699C37.4863 40.4933 38.6641 40.0033 40.037 39.9999C41.4099 39.9966 42.5885 40.4866 43.5728 41.4699C44.557 42.4533 45.0466 43.6299 45.0416 44.9999C45.0366 46.3699 44.547 47.5474 43.5728 48.5324C42.5985 49.5174 41.4199 50.0066 40.037 49.9999ZM12.8869 9.99999L18.8925 22.5H36.4086L43.29 9.99999H12.8869ZM10.5097 4.99999H47.4188C48.378 4.99999 49.1079 5.42749 49.6083 6.28249C50.1088 7.13749 50.1297 8.00166 49.6709 8.87499L40.7877 24.875C40.3289 25.7083 39.7142 26.3541 38.9435 26.8125C38.1728 27.2708 37.3278 27.5 36.4086 27.5H17.7664L15.0139 32.5H45.0416V37.4999H15.0139C13.1371 37.4999 11.7192 36.6775 10.7599 35.0325C9.80072 33.3875 9.75902 31.7516 10.6348 30.125L14.0129 24L5.00462 4.99999H0V0H8.13251L10.5097 4.99999Z" fill="#FFF1E1"/>
</svg>
