<svg width="54" height="54" viewBox="0 0 54 54" fill="none" xmlns="http://www.w3.org/2000/svg">
<mask id="path-1-inside-1_2476_629" fill="white">
<path d="M48 0C49.65 9.06271e-07 51.0633 0.587695 52.2393 1.76367C53.4153 2.93967 54.002 4.352 54 6V48C54 49.65 53.4133 51.0633 52.2393 52.2393C51.0653 53.4153 49.652 54.002 48 54H6C4.35 54 2.93767 53.4133 1.76367 52.2393C0.589695 51.0653 0.00200099 49.652 0 48V6C0 4.35 0.587673 2.93767 1.76367 1.76367C2.93967 0.589672 4.352 0.002 6 0H48ZM6 44.5498C8.69998 41.8998 11.8381 39.813 15.4141 38.2891C18.9901 36.7651 22.852 36.002 27 36C31.148 35.998 35.0109 36.7611 38.5889 38.2891C42.1668 39.817 45.304 41.9038 48 44.5498V6H6V44.5498ZM27 9C29.9 9 32.3748 10.0252 34.4248 12.0752C36.4748 14.1252 37.5 16.6 37.5 19.5C37.5 22.4 36.4748 24.8748 34.4248 26.9248C32.3748 28.9748 29.9 30 27 30C24.1 30 21.6252 28.9748 19.5752 26.9248C17.5252 24.8748 16.5 22.4 16.5 19.5C16.5 16.6 17.5252 14.1252 19.5752 12.0752C21.6252 10.0252 24.1 9 27 9Z"/>
</mask>
<path d="M48 0C49.65 9.06271e-07 51.0633 0.587695 52.2393 1.76367C53.4153 2.93967 54.002 4.352 54 6V48C54 49.65 53.4133 51.0633 52.2393 52.2393C51.0653 53.4153 49.652 54.002 48 54H6C4.35 54 2.93767 53.4133 1.76367 52.2393C0.589695 51.0653 0.00200099 49.652 0 48V6C0 4.35 0.587673 2.93767 1.76367 1.76367C2.93967 0.589672 4.352 0.002 6 0H48ZM6 44.5498C8.69998 41.8998 11.8381 39.813 15.4141 38.2891C18.9901 36.7651 22.852 36.002 27 36C31.148 35.998 35.0109 36.7611 38.5889 38.2891C42.1668 39.817 45.304 41.9038 48 44.5498V6H6V44.5498ZM27 9C29.9 9 32.3748 10.0252 34.4248 12.0752C36.4748 14.1252 37.5 16.6 37.5 19.5C37.5 22.4 36.4748 24.8748 34.4248 26.9248C32.3748 28.9748 29.9 30 27 30C24.1 30 21.6252 28.9748 19.5752 26.9248C17.5252 24.8748 16.5 22.4 16.5 19.5C16.5 16.6 17.5252 14.1252 19.5752 12.0752C21.6252 10.0252 24.1 9 27 9Z" fill="#E69C38"/>
<path d="M48 0L48 -2H48V0ZM52.2393 1.76367L53.6535 0.349458L53.6535 0.349449L52.2393 1.76367ZM54 6L52 5.99757V6H54ZM54 48L56 48V48H54ZM52.2393 52.2393L53.6547 53.6523L53.6547 53.6523L52.2393 52.2393ZM48 54L48.0024 52H48V54ZM1.76367 52.2393L0.349449 53.6535L0.349458 53.6535L1.76367 52.2393ZM0 48L-2 48L-2 48.0024L0 48ZM1.76367 1.76367L0.350662 0.348255L0.350662 0.348256L1.76367 1.76367ZM6 0L6 -2L5.99757 -2L6 0ZM6 44.5498H4V49.3151L7.40093 45.9772L6 44.5498ZM15.4141 38.2891L14.63 36.4492L14.63 36.4492L15.4141 38.2891ZM27 36L26.999 34L26.999 34L27 36ZM38.5889 38.2891L39.3743 36.4498L39.3743 36.4498L38.5889 38.2891ZM48 44.5498L46.5991 45.9772L50 49.315V44.5498H48ZM48 6H50V4H48V6ZM6 6V4H4V6H6ZM27 9L27 7H27V9ZM34.4248 12.0752L35.839 10.661L35.839 10.661L34.4248 12.0752ZM37.5 19.5L39.5 19.5V19.5H37.5ZM34.4248 26.9248L35.839 28.339L34.4248 26.9248ZM27 30L27 32L27 32L27 30ZM19.5752 26.9248L18.161 28.339L18.161 28.339L19.5752 26.9248ZM16.5 19.5L14.5 19.5L14.5 19.5L16.5 19.5ZM19.5752 12.0752L18.161 10.661L19.5752 12.0752ZM48 0L48 2C49.1152 2 50.021 2.37389 50.8251 3.17789L52.2393 1.76367L53.6535 0.349449C52.1055 -1.1985 50.1848 -2 48 -2L48 0ZM52.2393 1.76367L50.825 3.17789C51.629 3.98185 52.0014 4.88596 52 5.99757L54 6L56 6.00243C56.0026 3.81804 55.2015 1.89749 53.6535 0.349458L52.2393 1.76367ZM54 6H52V48H54H56V6H54ZM54 48L52 48C52 49.1163 51.6263 50.0225 50.8238 50.8262L52.2393 52.2393L53.6547 53.6523C55.2003 52.1041 56 50.1837 56 48L54 48ZM52.2393 52.2393L50.8238 50.8262C50.0233 51.6281 49.1194 52.0014 48.0024 52L48 54L47.9976 56C50.1846 56.0026 52.1072 55.2024 53.6547 53.6523L52.2393 52.2393ZM48 54V52H6V54V56H48V54ZM6 54V52C4.8838 52 3.9792 51.6264 3.17789 50.825L1.76367 52.2393L0.349458 53.6535C1.89614 55.2002 3.8162 56 6 56V54ZM1.76367 52.2393L3.17789 50.8251C2.37654 50.0237 2.00135 49.1174 2 47.9976L0 48L-2 48.0024C-1.99735 50.1866 -1.19715 52.1068 0.349449 53.6535L1.76367 52.2393ZM0 48H2V6H0H-2V48H0ZM0 6H2C2 4.88484 2.37378 3.98063 3.17668 3.17909L1.76367 1.76367L0.350662 0.348256C-1.19843 1.89472 -2 3.81516 -2 6H0ZM1.76367 1.76367L3.17668 3.17909C3.98151 2.37563 4.88795 2.00135 6.00243 2L6 0L5.99757 -2C3.81605 -1.99735 1.89783 -1.19628 0.350662 0.348255L1.76367 1.76367ZM6 0V2H48V0V-2H6V0ZM6 44.5498L7.40093 45.9772C9.91785 43.5069 12.8452 41.5579 16.1982 40.1289L15.4141 38.2891L14.63 36.4492C10.831 38.0682 7.4821 40.2928 4.59907 43.1224L6 44.5498ZM15.4141 38.2891L16.1982 40.1289C19.5103 38.7174 23.1039 38.0019 27.001 38L27 36L26.999 34C22.6002 34.0021 18.4698 34.8127 14.63 36.4492L15.4141 38.2891ZM27 36L27.001 38C30.8967 37.9981 34.4901 38.7134 37.8034 40.1284L38.5889 38.2891L39.3743 36.4498C35.5317 34.8087 31.3992 33.9979 26.999 34L27 36ZM38.5889 38.2891L37.8034 40.1284C41.1594 41.5616 44.0862 43.511 46.5991 45.9772L48 44.5498L49.4009 43.1224C46.5218 40.2967 43.1742 38.0725 39.3743 36.4498L38.5889 38.2891ZM48 44.5498H50V6H48H46V44.5498H48ZM48 6V4H6V6V8H48V6ZM6 6H4V44.5498H6H8V6H6ZM27 9L27 11C29.3696 11 31.3357 11.8145 33.0106 13.4894L34.4248 12.0752L35.839 10.661C33.4139 8.23588 30.4304 7 27 7L27 9ZM34.4248 12.0752L33.0106 13.4894C34.6855 15.1643 35.5 17.1304 35.5 19.5H37.5H39.5C39.5 16.0696 38.2641 13.0861 35.839 10.661L34.4248 12.0752ZM37.5 19.5L35.5 19.5C35.5 21.8696 34.6855 23.8357 33.0106 25.5106L34.4248 26.9248L35.839 28.339C38.2641 25.9139 39.5 22.9304 39.5 19.5L37.5 19.5ZM34.4248 26.9248L33.0106 25.5106C31.3357 27.1855 29.3696 28 27 28L27 30L27 32C30.4304 32 33.4139 30.7641 35.839 28.339L34.4248 26.9248ZM27 30V28C24.6304 28 22.6643 27.1855 20.9894 25.5106L19.5752 26.9248L18.161 28.339C20.5861 30.7641 23.5696 32 27 32V30ZM19.5752 26.9248L20.9894 25.5106C19.3145 23.8357 18.5 21.8696 18.5 19.5L16.5 19.5L14.5 19.5C14.5 22.9304 15.7359 25.9139 18.161 28.339L19.5752 26.9248ZM16.5 19.5H18.5C18.5 17.1304 19.3145 15.1643 20.9894 13.4894L19.5752 12.0752L18.161 10.661C15.7359 13.0861 14.5 16.0696 14.5 19.5H16.5ZM19.5752 12.0752L20.9894 13.4894C22.6643 11.8145 24.6304 11 27 11V9V7C23.5696 7 20.5861 8.23588 18.161 10.661L19.5752 12.0752Z" fill="#643D06" mask="url(#path-1-inside-1_2476_629)"/>
</svg>
