<svg width="313" height="297" viewBox="0 0 313 297" fill="none" xmlns="http://www.w3.org/2000/svg">
<path d="M312.69 155.19L312.65 154.89C311.99 151.43 311.84 148.17 311.69 145.02C311.53 141.52 311.36 137.89 310.49 134.16C309.49 129.43 308.62 125.53 307.76 121.88C307.19 119.49 306.69 117.76 306.25 116.24C305.67 114.26 305.17 112.55 304.66 109.83C304.15 107.12 303.72 104.25 303.38 101.94C303.13 100.25 303.01 99.3 302.88 98.3C302.75 97.3 302.61 96.25 302.34 94.38L302.26 93.84C301.67 89.75 301.34 87.51 300.84 85.33C300.81 85.17 299.99 81.37 298.2 76.63C295.62 69.77 288.23 61.84 280.4 53.44C277.6 50.45 274.72 47.35 272.1 44.33C268.36 40.04 265.64 36.47 263.01 33.02C258.29 26.84 254.22 21.5 246.29 14.81C244.18 13.03 241.85 11.13 238.75 9.28C223.93 0.450001 209.43 -1.56 194.46 3.14C192.41 3.1 190.37 3.08 188.34 3.05L186.19 3.03C176.97 1.69 169.37 0.84 162.27 0.37C159.54 0.19 156.85 0.06 154.27 0H154.08L153.89 0.02C149.63 0.67 145.2 1.25 140.91 1.8C132.44 2.9 123.69 4.03 115.28 5.85C112.62 6.42 110.07 7.05 107.71 7.71C107.13 7.86 106.56 8.01 105.97 8.16C101.5 9.29 96.88 10.47 92.78 13.98L92.54 14.22C92.33 14.47 92.12 14.71 91.92 14.95H91.79L80.03 26.01L73.46 30.52C70.38 32.34 67.19 34.03 63.93 35.76C59.36 38.19 54.63 40.7 50.02 43.67L49.78 43.85C44.78 48.13 40.71 52.82 38.29 57.09C36.69 60.06 35.95 63.31 35.24 66.46C34.34 70.41 33.5 74.15 31.06 77.23L30.87 77.51C29.61 79.72 28.27 81.83 26.65 84.32C25.18 86.57 23.7 88.8 22.23 91.02C21.08 92.75 19.91 94.81 18.76 97.17C11.78 111.6 1.54 158.05 0.61 167.01C0.41 168.93 0.28 170.76 0.27 170.83C0.15 172.51 0.06 174.22 0 175.89V176.01C0.04 178.01 0.16 180.02 0.36 181.98C0.77 186.03 1.52 190.02 2.59 193.88C3.52 197.1 4.47 200.01 5.48 202.76L5.63 203.07C9.32 209.61 12.85 216.48 16.27 223.14C25.87 241.83 35.8 261.16 50.8 276.25L50.99 276.42C53.28 278.23 55.68 279.89 58.12 281.36C60.65 282.88 63.31 284.23 66.02 285.38C68.81 286.66 71.74 287.82 74.75 288.83C83.37 291.73 92.79 293.48 102.75 294.05C105.27 294.43 107.93 294.66 110.64 294.72C112.64 294.76 114.65 294.72 116.6 294.68C117.15 294.68 117.71 294.66 118.26 294.65C125.78 295.8 133.37 296.39 140.99 296.39C147.36 296.39 153.75 295.98 160.11 295.17C162.87 294.82 165.67 294.38 168.43 293.88L168.68 293.84L168.91 293.74C175.12 291.05 181.45 288.17 187.71 285.19C190.83 283.7 192.8 282.74 194.23 282.03C195.44 281.43 196.32 281 197.28 280.56C203.73 277.59 208.01 276.85 215.78 275.5C218.81 274.98 222.25 274.38 226.52 273.53C253.01 268.27 259.91 263.47 264.3 259.39C266.67 257.19 268.1 255.32 269.93 252.94L270.3 252.46C273.7 248.04 277.4 243.62 280.97 239.34C295.78 221.62 311.08 203.3 312.36 177.16C312.7 173.98 312.81 170.99 312.68 168.03C312.87 163.87 312.87 159.55 312.67 155.19H312.69Z" fill="#FFF1E1"/>
<path d="M300.79 154.56L300.73 154.04C300.15 150.97 300.01 148.03 299.88 145.19C299.73 141.89 299.57 138.47 298.75 134.92C297.84 130.58 297.04 126.97 296.24 123.57C295.71 121.32 295.25 119.72 294.84 118.28C294.33 116.5 293.89 114.96 293.43 112.55C292.97 110.11 292.59 107.5 292.28 105.36C292.06 103.86 291.95 102.99 291.83 102.04C291.71 101.11 291.58 100.13 291.34 98.4L291.27 97.91C290.73 94.11 290.43 92.01 289.96 89.96C289.93 89.81 289.16 86.21 287.48 81.69C285.01 75.05 278.14 67.62 270.87 59.74C268.34 57 265.71 54.16 263.35 51.41C259.98 47.5 257.52 44.24 255.13 41.08C250.76 35.3 246.99 30.31 239.61 24.02C237.63 22.33 235.44 20.53 232.49 18.76C218.59 10.41 204.99 8.47 190.91 12.85C189.14 12.82 187.37 12.8 185.6 12.78L183.76 12.76C175.35 11.52 168.41 10.75 161.91 10.32C159.39 10.15 156.91 10.04 154.53 9.98H154.2L153.87 10.02C149.99 10.62 145.96 11.14 142.05 11.66C134.3 12.68 126.28 13.73 118.54 15.41C116.09 15.94 113.73 16.53 111.55 17.15C111.03 17.29 110.51 17.42 109.98 17.56C105.7 18.66 101.28 19.79 97.23 23.29L96.81 23.71C94.84 26.05 93.1 28.03 91.54 29.69C85.56 35.44 78.6 39.18 71.22 43.13C67.02 45.38 62.67 47.71 58.39 50.5L57.98 50.81C53.26 54.89 49.4 59.39 47.09 63.51C45.51 66.46 44.82 69.57 44.14 72.58C43.37 76.02 42.64 79.27 40.66 81.8L40.34 82.28C39.21 84.28 38.01 86.2 36.54 88.46C35.2 90.53 33.86 92.58 32.52 94.61C31.42 96.27 30.32 98.24 29.24 100.48C22.77 113.9 13.33 157.07 12.48 165.39C12.3 167.19 12.17 168.9 12.17 168.96C12.06 170.51 11.97 172.1 11.92 173.77V173.9C11.96 175.8 12.08 177.69 12.26 179.54C12.65 183.37 13.35 187.16 14.36 190.81C15.22 193.8 16.09 196.52 17.04 199.11L17.29 199.66C20.64 205.66 23.86 211.97 26.97 218.09C35.79 235.43 44.91 253.35 58.86 267.51L59.12 267.74C61.27 269.46 63.52 271.03 65.82 272.42C68.2 273.86 70.7 275.14 73.2 276.21C75.8 277.42 78.55 278.51 81.35 279.46C89.34 282.17 98.07 283.82 107.28 284.35C109.63 284.71 112.1 284.92 114.63 284.97C116.5 285.01 118.35 284.97 120.14 284.94L121.51 284.91C128.38 285.97 135.4 286.51 142.37 286.51C148.24 286.51 154.19 286.13 160.04 285.38C162.6 285.05 165.18 284.65 167.73 284.18L168.55 283.93C174.24 281.44 180.03 278.78 185.77 276.02C188.63 274.65 190.43 273.75 191.74 273.1L191.88 273.03C192.9 272.52 193.66 272.14 194.49 271.76C200.17 269.12 203.99 268.45 211.01 267.23C213.77 266.75 216.9 266.2 220.78 265.42C245.41 260.48 251.93 255.88 256.12 251.96C258.39 249.83 259.74 248.05 261.45 245.8L261.79 245.36C264.88 241.3 268.23 237.25 271.48 233.33C285.17 216.79 299.34 199.69 300.52 175.12C300.84 172.13 300.94 169.32 300.82 166.54C301 162.68 300.99 158.67 300.8 154.62L300.79 154.56ZM293.3 166.64C293.41 169.11 293.32 171.62 293.03 174.37V174.54C292.81 178.87 292.15 183.04 290.99 187.24C288.79 186.22 285.93 185.59 282.7 185.45C274.45 185.09 262.62 188.03 256.4 197.47C249.45 208.03 251.67 223.29 261.46 233.6C259.76 235.69 257.73 238.2 255.79 240.75L255.44 241.21C253.88 243.26 252.76 244.73 250.96 246.42C247.28 249.87 240.89 253.67 219.28 258C215.45 258.77 212.35 259.31 209.62 259.79C202.3 261.07 197.87 261.84 191.3 264.9C190.37 265.34 189.53 265.75 188.36 266.33C187.07 266.97 185.3 267.85 182.5 269.19C176.98 271.84 171.4 274.4 165.92 276.81C163.63 277.22 161.33 277.58 159.06 277.87C146.79 279.45 134.43 279.28 122.33 277.39L122.01 277.34L119.97 277.38C118.27 277.41 116.51 277.45 114.78 277.41C112.52 277.36 110.32 277.17 108.15 276.83L107.87 276.8C99.26 276.31 91.14 274.79 83.74 272.28C81.18 271.41 78.68 270.42 76.21 269.27C73.97 268.31 71.78 267.19 69.69 265.92C67.73 264.74 65.81 263.39 63.96 261.93C52.6 250.34 44.36 235.52 36.38 219.98C43.57 218.56 49.82 214.76 53.78 209.35C57.09 204.83 58.44 199.6 57.49 195.01C55.91 187.4 47.75 181.04 38.93 180.53C32.21 180.14 25.7 183.13 21.47 188.34C20.63 185.22 20.04 181.98 19.71 178.71C19.54 177.07 19.44 175.39 19.41 173.81C19.46 172.35 19.54 170.87 19.64 169.43C19.64 169.38 19.76 167.74 19.93 166.08C20.28 162.64 22.42 151.83 25.21 139.98C26.85 143.81 29.23 146.64 31.18 148.49L31.78 149.06L32.59 149.27C37.12 150.44 41.4 150.03 44.82 148.07C53.75 142.93 52.58 130.04 52.26 127.51C52.07 126.05 51.68 123.01 49.74 119.71C49.21 118.8 44.39 110.96 37.29 110.96C37.19 110.96 37.1 110.96 37 110.96C35.59 111 34.17 111.36 32.79 112.01C33.97 108.41 35.04 105.62 35.98 103.67C36.91 101.73 37.85 100.06 38.76 98.68C40.12 96.62 41.48 94.55 42.83 92.46C44.31 90.17 45.54 88.21 46.73 86.13C49.62 82.33 50.55 78.17 51.45 74.15C52.04 71.51 52.6 69.02 53.66 67.05C55.5 63.77 58.7 60.06 62.68 56.59C66.26 54.28 69.99 52.24 73.66 50.27C74.3 51.9 75.34 53.76 77.05 55.45C79.28 57.66 81.75 58.7 83.43 59.19L83.99 59.3C84.91 59.39 85.87 59.44 86.84 59.44C91.44 59.44 98.09 58.41 103.66 53.52C110.9 47.16 115.36 35.41 110.17 28.73C109.37 27.7 108.34 26.82 107.13 26.11C108.61 25.58 110.18 25.18 111.8 24.76C112.35 24.62 112.89 24.48 113.49 24.32C115.56 23.74 117.77 23.19 120.09 22.68C127.53 21.06 135.4 20.03 143.03 19.03C146.85 18.53 150.8 18.01 154.64 17.43C156.82 17.49 159.08 17.6 161.37 17.75C166.81 18.11 172.57 18.72 179.37 19.67C179.39 21.81 180.29 24.34 181.99 26.89C184.98 31.37 191.19 36.63 198.61 36.23C207 35.79 214.08 28.76 215.76 19.54C220.01 20.71 224.31 22.6 228.58 25.16C231.04 26.64 232.95 28.21 234.7 29.7C241.45 35.45 245 40.14 249.1 45.57C251.44 48.66 254.09 52.17 257.62 56.28C257.97 56.68 258.32 57.09 258.68 57.49C253.86 58.45 249.38 61.22 245.99 65.41L245.91 65.51C242.3 70.52 234.91 83.29 244.12 93.57L244.43 93.92L244.82 94.16C246.21 95.02 249.97 97.01 254.95 97.01C256.75 97.01 258.55 96.74 260.29 96.22C268.35 93.78 271.61 87.04 272.51 84.76C273.42 83.3 275 80.29 275.52 76.39C277.54 78.97 279.5 81.82 280.42 84.27C281.81 88 282.52 91.15 282.6 91.52C283.01 93.32 283.28 95.19 283.81 98.93L283.88 99.42C284.12 101.08 284.24 102.02 284.36 102.99C284.48 103.93 284.6 104.83 284.83 106.4C285.13 108.45 285.54 111.26 286.04 113.91C286.57 116.69 287.1 118.54 287.62 120.34C288.02 121.74 288.44 123.19 288.92 125.26C289.7 128.57 290.48 132.13 291.4 136.51C292.08 139.48 292.22 142.41 292.36 145.55C292.5 148.57 292.65 151.68 293.28 155.15C293.45 158.93 293.45 162.68 293.28 166.37V166.64H293.3Z" fill="#2F3233"/>
<path d="M109.4 227.95C97.85 227.95 88.45 235.47 88.45 244.72C88.45 253.97 97.85 261.5 109.4 261.5C120.95 261.5 130.35 253.97 130.35 244.72C130.35 235.47 120.95 227.95 109.4 227.95Z" fill="#2F3233"/>
<path d="M104.39 74.95C108.65 75.26 112.87 76.28 116.91 77.97L118.48 74.82C112.51 71.33 106.16 69.48 99.62 69.3C97.98 69.26 94.55 69.17 90.33 70.25C82.37 72.3 76.9 77.14 73.72 80.84L64.06 92.07L76.08 83.42C81.05 79.84 91.34 73.98 104.39 74.94V74.95Z" fill="#2F3233"/>
<path d="M178.11 51.16C181.7 48.84 185.67 47.1 189.91 46.01L189.26 42.55C182.39 43.38 176.21 45.73 170.89 49.54C169.55 50.5 166.77 52.49 164.06 55.91C158.95 62.35 157.52 69.51 157.21 74.38L156.29 89.17L160.65 75C162.45 69.15 167.12 58.26 178.1 51.15L178.11 51.16Z" fill="#2F3233"/>
<path d="M197.07 207.46C193.42 210.76 187.97 212.53 181.31 212.56C179 212.59 176.65 212.3 174.34 211.76L173.25 215.1C177.46 216.87 181.84 217.74 185.9 217.74C191.32 217.74 196.18 216.19 199.33 213.18C201.55 211.06 202.91 208.19 203.27 204.9L204.18 196.45L199.99 203.85C199.23 205.18 198.25 206.4 197.07 207.47V207.46Z" fill="#2F3233"/>
<path d="M157.3 134.2C157.5 134.2 157.71 134.18 157.92 134.18C163.46 134.18 168.02 138.26 168.51 143.68C168.53 143.83 168.54 143.99 168.55 144.13V144.94C168.55 145.08 168.55 145.22 168.54 145.36V145.44C168.25 149.5 165.57 153.01 161.65 154.41L161.44 154.49C160.15 154.94 158.77 155.14 157.39 155.06L155.53 154.96V160.45H158.26C166.95 160.45 174.03 153.38 174.03 144.68C174.03 135.98 166.96 128.92 158.25 128.92L155.43 128.94L155.47 134.28L157.31 134.19L157.3 134.2Z" fill="#2F3233"/>
<path d="M238.75 91.7C238.71 91.13 238.67 90.57 238.62 90.01L238.52 89.09C238.48 88.77 238.45 88.45 238.41 88.14C238.23 86.85 238.01 85.58 237.75 84.42C237.74 84.35 237.72 84.28 237.7 84.21C237.56 83.58 237.4 82.95 237.24 82.33C237.13 81.93 237.01 81.53 236.88 81.06L236.8 80.81C236.71 80.51 236.62 80.2 236.52 79.9C236.4 79.52 236.26 79.14 236.13 78.76L236.04 78.5C235.96 78.28 235.89 78.07 235.81 77.86C235.62 77.36 235.43 76.87 235.22 76.38L234.91 75.65C234.81 75.42 234.72 75.18 234.61 74.95C233.59 72.72 232.35 70.5 231.02 68.54C227.46 63.3 223.57 60.08 222.06 58.93C220.03 57.39 217.85 56.07 215.59 55C215.05 54.74 214.49 54.5 213.94 54.27L213.77 54.2C213.24 53.98 212.71 53.78 212.07 53.54C211.58 53.37 211.09 53.2 210.59 53.04L208.48 52.43L208.44 52.49C205.88 51.89 203.27 51.58 200.68 51.58C179.62 51.58 162.49 70.99 162.49 94.84C162.49 118.69 179.62 138.1 200.68 138.1C203.39 138.1 206.1 137.77 208.76 137.12L208.87 137.24L210.96 136.5C216.94 134.61 222.49 131.02 226.99 126.16C227.48 125.64 227.98 125.11 228.46 124.54C229.8 122.97 233.18 118.61 235.68 112.19C235.98 111.42 236.27 110.58 236.55 109.72L236.65 109.39C236.73 109.13 236.81 108.85 236.89 108.58C238.2 104.14 238.87 99.52 238.87 94.86C238.87 93.94 238.84 92.97 238.77 91.95V91.71L238.75 91.7ZM204.61 58.41L203.42 60.28C202.33 61.97 201.78 62.75 201.42 63.25C201.03 63.79 200.68 64.24 200.43 64.56L190.19 77.97H207.1L189.44 93.38L189.52 94.79C189.71 98.52 190.24 102.24 191.09 105.82C192.06 109.89 194.56 118.04 200.48 126.93C201.64 128.66 202.9 130.37 204.25 132.04C203.06 132.19 201.86 132.27 200.66 132.27C182.82 132.27 168.31 115.48 168.31 94.85C168.31 74.22 182.82 57.43 200.66 57.43C202.11 57.43 203.56 57.54 205 57.77C204.86 58 204.73 58.21 204.6 58.41H204.61Z" fill="#2F3233"/>
<path d="M134.24 104.04C134.17 102.33 133.06 101 131.4 100.65L77.55 89.13C75.21 88.63 73.38 90.28 72.98 92.16C72.54 94.22 73.7 96.04 75.74 96.48L115.37 104.96L79.08 115.97C77.02 116.59 75.95 118.65 76.59 120.75C77.09 122.4 78.48 123.42 80.06 123.42C80.42 123.42 80.8 123.37 81.18 123.25L131.55 107.97C133.21 107.47 134.32 105.85 134.24 104.05V104.04Z" fill="#2F3233"/>
<path d="M203.61 172.55L200.98 170.2C195.29 176.54 188.19 181.67 180.44 185.03C169.27 189.87 158.85 190.28 151.77 189.68C150.44 185.45 148.05 181.78 144.92 179.22C141.26 176.24 137.05 175.11 133.04 176.05L130.87 176.58L131.96 181.14L133.15 180.78C133.35 180.72 133.55 180.66 133.76 180.61C139.35 179.3 145.47 183.88 147.69 191.06C147.76 191.27 147.83 191.5 147.88 191.71C147.92 191.86 147.96 192 148.02 192.24C148.04 192.3 148.05 192.37 148.07 192.44C148.09 192.52 148.11 192.61 148.14 192.77C148.19 193 148.24 193.23 148.28 193.47V193.51C149.3 199.19 147.65 204.68 144.03 207.52L143.82 207.68C142.81 208.45 141.69 208.99 140.48 209.27C140.3 209.31 140.13 209.35 139.95 209.38L138.7 209.58L139.81 214.32L141.9 213.83C149.57 212.03 154.13 203.03 152.59 193.29C153.9 193.38 155.3 193.43 156.79 193.43C163.76 193.43 172.55 192.29 181.82 188.27C190.03 184.71 197.56 179.27 203.58 172.56L203.61 172.55Z" fill="#2F3233"/>
</svg>
