<svg width="21" height="21" viewBox="0 0 21 21" fill="none" xmlns="http://www.w3.org/2000/svg">
<path d="M8.16525 0C12.6657 0 16.3305 3.66479 16.3305 8.16525C16.3305 10.1204 15.6447 11.913 14.4933 13.3196L21 19.8262L19.8262 21L13.3196 14.4933C11.913 15.6447 10.1204 16.3305 8.16525 16.3305C3.66479 16.3305 -1.89245e-06 12.6657 -1.89245e-06 8.16525C-1.89245e-06 3.66479 3.66479 0 8.16525 0ZM8.16525 1.63305C4.5483 1.63305 1.63305 4.5483 1.63305 8.16525C1.63305 11.7822 4.5483 14.6974 8.16525 14.6974C11.7822 14.6974 14.6974 11.7822 14.6974 8.16525C14.6974 4.5483 11.7822 1.63305 8.16525 1.63305Z" fill="black"/>
</svg>
