<svg width="71" height="52" viewBox="0 0 71 52" fill="none" xmlns="http://www.w3.org/2000/svg">
<path d="M58.5 6C63.1944 6 67 9.80558 67 14.5C67 19.1944 63.1944 23 58.5 23C53.8056 23 50 19.1944 50 14.5C50 9.80558 53.8056 6 58.5 6Z" fill="#E69C38" stroke="#643D06" stroke-width="2"/>
<path d="M67.1635 14.5C67.1635 9.72319 63.2897 5.84177 58.5 5.84177C53.7103 5.84177 49.8365 9.72319 49.8365 14.5C49.8365 19.2768 53.7103 23.1582 58.5 23.1582V24C53.2533 24 49 19.7467 49 14.5C49 9.25329 53.2533 5 58.5 5C63.7467 5 68 9.25329 68 14.5C68 19.7467 63.7467 24 58.5 24V23.1582C63.2897 23.1582 67.1635 19.2768 67.1635 14.5Z" fill="#643D06"/>
<path d="M12.5 6C17.1944 6 21 9.80558 21 14.5C21 19.1944 17.1944 23 12.5 23C7.80558 23 4 19.1944 4 14.5C4 9.80558 7.80558 6 12.5 6Z" fill="#E69C38" stroke="#643D06" stroke-width="2"/>
<path d="M21.1687 14.5C21.1687 9.71238 17.2876 5.83125 12.5 5.83125C7.71238 5.83125 3.83125 9.71238 3.83125 14.5C3.83125 19.2876 7.71238 23.1687 12.5 23.1687V24C7.25329 24 3 19.7467 3 14.5C3 9.25329 7.25329 5 12.5 5C17.7467 5 22 9.25329 22 14.5C22 19.7467 17.7467 24 12.5 24V23.1687C17.2876 23.1687 21.1687 19.2876 21.1687 14.5Z" fill="#643D06"/>
<path d="M27.4893 25H42.5107C45.5383 25 48 27.4664 48 30.5176V50.1895C48 50.6411 47.6365 51 47.1973 51H22.8027C22.3635 51 22 50.6411 22 50.1895V30.5176C22 27.4664 24.4617 25 27.4893 25Z" fill="#E69C38" stroke="#643D06" stroke-width="2"/>
<path d="M47.1974 51.1552V52H22.8026V51.1552H47.1974ZM48.1588 50.1897V30.5172C48.1588 27.3845 45.6301 24.8448 42.5107 24.8448H27.4893C24.3699 24.8448 21.8412 27.3845 21.8412 30.5172V50.1897C21.8412 50.7229 22.2716 51.1552 22.8026 51.1552V52L22.7561 51.9994C21.782 51.9747 21 51.1739 21 50.1897V30.5172C21 26.946 23.8601 24.0457 27.4054 24.0006L27.4893 24H42.5107L42.5946 24.0006C46.1399 24.0457 49 26.946 49 30.5172V50.1897L48.9994 50.2363C48.9748 51.2146 48.1774 52 47.1974 52V51.1552C47.7284 51.1552 48.1588 50.7229 48.1588 50.1897Z" fill="#643D06"/>
<path d="M34.5 1C39.7467 1 44 5.25329 44 10.5C44 15.7467 39.7467 20 34.5 20C29.2533 20 25 15.7467 25 10.5C25 5.25329 29.2533 1 34.5 1Z" fill="#E69C38" stroke="#643D06" stroke-width="2"/>
<path d="M44.1648 10.5C44.1648 5.16229 39.8377 0.835227 34.5 0.835227C29.1623 0.835227 24.8352 5.16229 24.8352 10.5C24.8352 15.8377 29.1623 20.1648 34.5 20.1648V21C28.701 21 24 16.299 24 10.5C24 4.70101 28.701 0 34.5 0C40.299 0 45 4.70101 45 10.5C45 16.299 40.299 21 34.5 21V20.1648C39.8377 20.1648 44.1648 15.8377 44.1648 10.5Z" fill="#643D06"/>
<path d="M64.624 28C67.5784 28 70 30.4369 70 33.4756V50.2012C70 50.657 69.6398 51 69.2285 51H56.6045C56.6794 50.7462 56.7217 50.4782 56.7217 50.2012V33.4756C56.7217 31.3161 55.8165 29.3666 54.3662 28H64.624Z" fill="#E69C38" stroke="#643D06" stroke-width="2"/>
<path d="M70.1735 50.2013V33.4755C70.1735 30.3871 67.7276 27.8789 64.6959 27.8399L64.6242 27.8394H53.9366C55.4944 29.1496 56.5003 31.113 56.5463 33.3172L56.548 33.4755V50.2013C56.548 50.5397 56.4851 50.8632 56.3707 51.1606H69.2289V52H53.9504C54.9285 52 55.7215 51.1947 55.7215 50.2013V33.4755C55.7214 30.4803 53.7192 27.9601 51 27.2202C51.5276 27.0766 52.0822 27 52.6544 27H64.6242C68.1454 27 71 29.8992 71 33.4755V50.2013C71 51.1947 70.2071 52 69.2289 52V51.1606C69.7506 51.1606 70.1735 50.7311 70.1735 50.2013Z" fill="#643D06"/>
<path d="M6.17578 28H15.083C13.6799 29.357 12.8086 31.2852 12.8086 33.4102V50.2197C12.8086 50.4891 12.8485 50.7509 12.9199 51H1.71582C1.35544 51 1.00011 50.686 1 50.2197V33.4102C1 30.3871 3.352 28 6.17578 28Z" fill="#E69C38" stroke="#643D06" stroke-width="2"/>
<path d="M13.0082 50.2195V33.4097C13.0082 31.1646 13.9925 29.1588 15.5376 27.8309H6.17578C3.20713 27.8309 0.800564 30.3286 0.800564 33.4097V50.2195C0.800564 50.744 1.21019 51.1691 1.71549 51.1691V52C0.768053 52 1.65479e-07 51.2029 0 50.2195V33.4097C0 29.8697 2.76499 27 6.17578 27H18.0156C18.3506 27 18.6794 27.0277 19 27.081C16.0572 27.5703 13.8087 30.2175 13.8087 33.4097V50.2195C13.8087 51.2028 14.5768 52 15.5242 52H1.71549V51.1691H13.1798C13.0691 50.8748 13.0082 50.5545 13.0082 50.2195Z" fill="#643D06"/>
</svg>
