<svg width="241" height="140" viewBox="0 0 241 140" fill="none" xmlns="http://www.w3.org/2000/svg">
<g filter="url(#filter0_d_2403_611)">
<path d="M213.495 90.176C212.932 88.8656 212.317 87.6537 211.887 86.2795C211.434 84.8299 210.988 83.2934 209.85 82.2091C208.707 81.1248 207.308 81.0262 205.904 80.5392C204.616 80.0927 203.35 79.4027 202.399 78.4228C200.751 76.7296 199.915 73.7551 201.372 71.6851C202.66 69.8528 205.028 69.1454 206.745 67.8118C208.051 66.7971 209.235 65.4634 210.291 64.1994C212.624 61.393 214.446 58.1865 216.019 54.9047C216.228 54.4698 216.431 54.0233 216.634 53.5826C217.273 52.1794 217.064 50.5385 216.1 49.3382C214.754 47.6567 212.16 46.2245 209.798 45.7839C209.839 45.6853 209.873 45.5809 209.902 45.4823L212.496 36.895C212.874 35.6599 212.636 34.3147 211.864 33.2768C211.092 32.2389 209.873 31.6243 208.579 31.6243H206.653L208.411 25.9303C208.852 24.5039 208.481 22.95 207.442 21.8773C206.658 21.0713 205.596 20.6306 204.5 20.6306C204.14 20.6306 203.774 20.677 203.414 20.7756L190.804 24.2314C189.446 24.6025 188.378 25.6462 187.972 26.9856L186.567 31.6185H186.266C184.461 31.6185 182.871 32.8014 182.348 34.5235L181.965 35.7991C181.606 35.428 181.223 35.0685 180.816 34.7264C177.81 32.2041 173.661 30.8125 169.146 30.8125C162.815 30.8125 156.994 33.4798 152.763 38.3214C152.444 38.6867 152.136 39.0636 151.841 39.4521C151.016 37.6836 149.786 36.0774 148.179 34.7322C145.173 32.2099 141.023 30.8183 136.508 30.8183C130.386 30.8183 124.745 33.3116 120.555 37.8517C119.754 34.7148 118.036 32.6564 116.533 31.3924C114.102 29.3513 110.858 28.2265 107.399 28.2265C102.948 28.2265 99.1351 30.1283 96.6571 33.5841C96.1986 34.222 95.7866 34.912 95.4326 35.6367H86.0197C84.5166 35.6367 83.1413 36.4543 82.4216 37.7705L82.381 36.2282C82.323 34.0074 80.5066 32.2389 78.2897 32.2389H70.1245C70.374 31.2184 70.5017 30.1515 70.5017 29.0498C70.5017 25.1823 68.871 21.2742 66.0332 18.3229C63.6945 15.8934 59.4465 13 52.5115 13C47.1609 13 42.5995 14.7337 39.3149 18.0156C36.2565 21.0713 34.5736 25.2519 34.5736 29.7978C34.5736 33.3116 35.5427 36.1876 37.0632 38.7563C33.883 39.1795 30.8537 40.6697 28.544 42.9833C25.6133 45.9172 24 49.9761 24 54.406C24 59.5375 26.0892 64.2226 29.8845 67.603C31.5791 69.1106 33.5638 70.3051 35.7575 71.1632C33.8946 72.462 32.1826 74.0392 30.668 75.8889C26.4316 81.032 24 87.8857 24 94.6929C24 107.409 32.3741 115.955 44.8396 115.955C50.7067 115.955 56.0399 114.094 60.7174 110.424C63.5958 113.862 68.0933 115.955 73.4382 115.955C78.783 115.955 83.5243 113.978 87.2674 110.354C88.341 110.215 89.3508 110.006 90.3083 109.722C93.1461 113.578 97.8874 115.961 103.58 115.961C107.695 115.961 111.566 114.744 114.856 112.459C114.99 112.94 115.204 113.398 115.512 113.81C116.284 114.854 117.502 115.468 118.802 115.468H127.937C129.736 115.468 131.326 114.297 131.854 112.575L132.371 110.888C132.434 110.98 132.498 111.073 132.568 111.16C135.452 115.126 139.12 115.961 141.691 115.961C144.261 115.961 146.856 115.155 149.2 113.561C150.75 114.854 153.077 115.961 156.524 115.961C160.302 115.961 163.778 114.599 166.871 111.914C169.877 114.558 174.021 115.961 178.861 115.961C183.381 115.961 187.449 114.761 190.978 112.418C194.013 114.645 197.861 115.903 201.969 115.984H201.987C204.836 116.042 210.123 116.141 213.425 112.129C213.518 112.013 213.611 111.897 213.704 111.781C216.901 107.641 217.621 102.022 215.729 95.9512C215.114 93.9739 214.313 92.0663 213.5 90.1702L213.495 90.176ZM199.422 55.2294L201.528 48.3873H204.552C203.42 50.5965 201.94 52.7187 200.437 54.2668C200.072 54.6437 199.735 54.9568 199.422 55.2236V55.2294Z" fill="#FFF1E1"/>
<path d="M51.5888 17.0994C42.5705 17.0994 37.7422 23.0485 37.7422 29.8094C37.7422 35.7063 41.3924 39.4637 45.9016 44.0733C49.0702 47.2914 50.7822 50.1848 50.7822 53.026C50.7822 56.3484 48.368 60.4247 43.2669 60.4247C39.1872 60.4247 36.5583 57.798 36.5583 55.2757C36.5583 53.6696 37.6841 52.7013 38.9202 52.7013C39.8314 52.7013 40.7425 53.1825 41.5491 54.6843L47.1319 47.8713C44.7177 44.3343 41.3344 42.7223 38.0091 42.7223C32.4844 42.7223 27.1686 47.2276 27.1686 54.4118C27.1686 62.5063 33.825 68.6236 43.3249 68.6236C53.4691 68.6236 61.5182 61.5959 61.5182 52.5389C61.5182 46.642 58.0305 41.2785 53.5735 36.5587C51.2116 34.0364 47.9385 31.0908 47.9385 28.0873C47.9385 26.2666 49.1746 24.1212 52.1227 24.1212C53.678 24.1212 55.0766 24.7648 55.6627 25.6752C53.9972 26.6957 52.9236 28.5686 52.9236 30.6618C52.9236 33.932 55.5524 36.5587 58.8255 36.5587C62.9052 36.5587 65.4819 33.2362 65.4819 29.0498C65.4819 23.9589 61.2397 17.0936 51.583 17.0936L51.5888 17.0994Z" fill="#C1282D"/>
<path d="M207.535 49.7383C204.999 54.9279 200.304 60.6044 196.224 60.6044C194.495 60.6044 192.887 59.5549 194.123 55.5425L197.582 44.3053H205.062L207.657 35.7237H200.176L203.577 24.7301L190.966 28.1859L188.68 35.7179H185.343L182.749 44.2995H186.028L184.374 49.7499C180.422 57.5661 174.793 60.7262 169.709 60.7262C166.436 60.7262 164.149 59.4911 163.035 57.2704C175.767 57.0848 180.648 50.2312 180.648 44.8561C180.648 39.481 175.767 34.912 168.223 34.912C157.766 34.912 150.732 43.6907 149.995 52.7361C146.229 58.3721 141.447 60.7262 137.071 60.7262C133.798 60.7262 131.512 59.4911 130.397 57.2704C143.13 57.0848 148.01 50.2312 148.01 44.8561C148.01 39.481 143.13 34.912 135.586 34.912C124.855 34.912 117.735 44.1487 117.311 53.4319C115.657 55.5425 113.817 56.5224 111.792 56.5224C111.299 56.5224 110.806 56.4586 110.306 56.4006C114.63 50.2254 115.994 45.0996 115.994 41.6438C115.994 35.0975 111.113 32.3201 106.476 32.3201C99.5529 32.3201 96.837 38.3098 96.837 43.5573C96.837 46.9551 97.7655 50.782 99.6168 53.9943C98.5664 55.5367 97.2664 57.0211 95.8446 58.5634L94.9161 39.7304H85.0912L77.7964 53.5015L77.367 36.3325H66.0564L67.4144 68.6293H79.0325L86.6348 53.8088L87.1281 68.6293H98.7463L100.046 67.5161C102.768 65.1677 105.054 62.8832 106.97 60.6624C108.328 61.2191 109.877 61.5264 111.543 61.5264C114.05 61.5264 116.243 60.8422 118.141 59.5549C120.149 65.2547 125.621 68.6236 133.363 68.6236C141.104 68.6236 146.693 65.4113 151.04 60.2391C153.239 65.5214 158.572 68.6236 165.995 68.6236C173.011 68.6236 178.495 65.8461 182.726 61.306C183.486 65.562 186.37 68.6236 192.324 68.6236C201.598 68.6236 207.778 61.1495 211.98 51.8895C211.237 50.9618 209.073 49.7905 207.529 49.7267L207.535 49.7383ZM102.896 48.5613C102.339 47.0189 102.095 45.349 102.095 43.6211C102.095 41.8932 102.402 39.2375 103.888 39.2375C104.567 39.2375 105.002 39.8521 105.002 41.3365C105.002 43.3138 104.259 45.7839 102.901 48.5613H102.896ZM135.406 44.6706C137.013 44.6706 137.628 45.7201 137.628 46.8334C137.628 48.9961 135.156 51.588 129.655 51.9591C130.09 47.8191 132.62 44.6706 135.4 44.6706H135.406ZM168.037 44.6706C169.645 44.6706 170.26 45.7201 170.26 46.8334C170.26 48.9961 167.788 51.588 162.286 51.9591C162.722 47.8191 165.252 44.6706 168.032 44.6706H168.037Z" fill="#C1282D"/>
<path d="M164.109 75.7207C164.109 75.7207 164.091 75.7265 164.08 75.7323C164.039 75.8367 163.993 75.9353 163.946 76.0338C163.969 76.0628 163.987 76.0976 163.998 76.1324C164.039 76.2136 164.08 76.2948 164.12 76.3759C164.202 76.3643 164.289 76.347 164.376 76.3238C164.434 76.231 164.492 76.144 164.55 76.0454C164.561 76.028 164.573 76.0106 164.579 75.9932C164.579 75.9874 164.585 75.9816 164.59 75.9701C164.585 75.9527 164.579 75.9411 164.585 75.9353C164.585 75.9295 164.585 75.9237 164.579 75.9121C164.579 75.9121 164.579 75.9063 164.579 75.9005C164.567 75.8831 164.556 75.8657 164.544 75.8483C164.532 75.8309 164.515 75.8193 164.503 75.8019C164.503 75.8019 164.503 75.8019 164.492 75.7961C164.457 75.7787 164.428 75.7555 164.393 75.7323C164.376 75.7265 164.358 75.7207 164.341 75.7149C164.318 75.7091 164.3 75.7033 164.277 75.6975C164.236 75.6975 164.202 75.6975 164.167 75.6975C164.149 75.6975 164.126 75.7091 164.109 75.7149V75.7207Z" fill="#C1282D"/>
<path d="M162.147 73.7319C162.147 73.7319 162.17 73.7203 162.182 73.7145C162.182 73.7145 162.194 73.7029 162.199 73.6971C162.223 73.6739 162.246 73.6565 162.275 73.6391C162.304 73.6275 162.327 73.6159 162.356 73.6043C162.356 73.5405 162.356 73.4768 162.35 73.413C162.35 73.384 162.339 73.3608 162.333 73.3318C162.333 73.3202 162.321 73.3086 162.315 73.3028C162.304 73.2912 162.298 73.2796 162.286 73.2738C162.275 73.2738 162.269 73.2622 162.257 73.2564C162.257 73.2564 162.252 73.2564 162.246 73.2564C162.217 73.268 162.188 73.2796 162.159 73.2912C162.159 73.2912 162.153 73.2912 162.147 73.2912C162.147 73.2912 162.136 73.2912 162.13 73.2912C162.095 73.2912 162.06 73.3028 162.025 73.3028C162.014 73.3028 162.002 73.3028 161.996 73.3028C161.996 73.3028 161.99 73.3028 161.985 73.3028C161.967 73.3666 161.95 73.4246 161.938 73.4884C161.938 73.5347 161.938 73.5811 161.938 73.6275C161.938 73.6623 161.938 73.6913 161.927 73.7261C161.927 73.7261 161.927 73.7261 161.927 73.7319C161.973 73.7319 162.025 73.7319 162.072 73.7319C162.101 73.7261 162.136 73.7203 162.165 73.7087L162.147 73.7319Z" fill="#C1282D"/>
<path d="M163.366 73.7667C163.366 73.7667 163.372 73.7667 163.377 73.7667C163.395 73.7667 163.406 73.7667 163.418 73.7667C163.546 73.6681 163.702 73.6043 163.865 73.5927C163.865 73.5753 163.877 73.5637 163.882 73.5463C163.882 73.5347 163.877 73.5232 163.871 73.5116C163.871 73.5 163.859 73.4884 163.853 73.4826C163.842 73.4768 163.83 73.471 163.818 73.4652C163.702 73.4594 163.592 73.4652 163.476 73.4652C163.43 73.4652 163.377 73.4652 163.331 73.4536C163.331 73.4536 163.331 73.4652 163.331 73.471C163.348 73.5753 163.366 73.6739 163.366 73.7725V73.7667Z" fill="#C1282D"/>
<path d="M163.865 74.2827C163.865 74.2827 163.859 74.2943 163.83 74.3059C163.83 74.3059 163.83 74.3059 163.824 74.3117C163.807 74.3291 163.795 74.3407 163.778 74.3581C163.772 74.3697 163.76 74.3813 163.755 74.3929C163.789 74.4451 163.813 74.5147 163.807 74.5784C163.813 74.5784 163.818 74.5784 163.824 74.5784C163.888 74.5958 163.94 74.6306 163.987 74.6828C164.01 74.6828 164.033 74.6944 164.062 74.7002C163.929 74.6712 164.045 74.7002 164.085 74.7002C164.12 74.7002 164.155 74.7002 164.184 74.7002C164.19 74.7002 164.196 74.7002 164.207 74.7002C164.196 74.6074 164.184 74.5147 164.184 74.4219V74.4103C164.184 74.3929 164.178 74.3755 164.172 74.3581C164.167 74.3465 164.161 74.3349 164.155 74.3291C164.149 74.3233 164.143 74.3175 164.132 74.3117C164.132 74.3117 164.126 74.3117 164.12 74.3059C164.103 74.2943 164.085 74.2885 164.062 74.2769C164.051 74.2769 164.045 74.2711 164.033 74.2653C164.016 74.2595 163.993 74.2537 163.969 74.2479C163.952 74.2479 163.935 74.2479 163.917 74.2479C163.917 74.2479 163.917 74.2479 163.911 74.2479C163.911 74.2479 163.906 74.2479 163.9 74.2479C163.911 74.2479 163.911 74.248 163.871 74.2595L163.865 74.2827Z" fill="#C1282D"/>
<path d="M165.745 75.6627C165.745 75.6627 165.774 75.7207 165.792 75.7439C165.792 75.7439 165.803 75.7555 165.809 75.7613C165.844 75.7497 165.873 75.7381 165.908 75.7265C165.925 75.7265 165.937 75.7207 165.954 75.7207C165.954 75.7207 165.954 75.7149 165.954 75.7091C165.954 75.7091 165.954 75.7033 165.954 75.6975C165.954 75.6975 165.954 75.6917 165.954 75.6859V75.6743C165.954 75.6569 165.966 75.6453 165.972 75.6279C165.972 75.6279 165.972 75.6164 165.977 75.6164C165.942 75.5526 165.913 75.4946 165.879 75.4308C165.838 75.425 165.803 75.4134 165.768 75.3902C165.739 75.3728 165.71 75.3612 165.687 75.3496C165.687 75.396 165.687 75.4424 165.687 75.4888C165.699 75.5468 165.716 75.6048 165.734 75.6627H165.745Z" fill="#C1282D"/>
<path d="M166.006 76.6369C166.064 76.6658 166.122 76.6891 166.18 76.718C166.215 76.7412 166.244 76.7644 166.267 76.7934C166.296 76.776 166.326 76.7644 166.355 76.7586C166.366 76.7296 166.378 76.7006 166.389 76.6774C166.389 76.6774 166.389 76.6717 166.395 76.6659C166.366 76.5615 166.337 76.4571 166.302 76.3585C166.285 76.3585 166.273 76.3585 166.256 76.3643C166.256 76.3643 166.244 76.3643 166.238 76.3643C166.198 76.3701 166.157 76.3759 166.111 76.3875C166.088 76.3875 166.064 76.3991 166.041 76.4049C166.041 76.4049 166.035 76.4049 166.03 76.4049C166.018 76.4107 166.012 76.4165 166.001 76.4223C165.989 76.4629 165.972 76.5035 165.96 76.5441C165.977 76.5731 165.983 76.6079 165.995 76.6427L166.006 76.6369Z" fill="#C1282D"/>
<path d="M165.339 77.9183C165.484 78.0981 165.658 78.243 165.844 78.3416C165.884 78.33 165.925 78.3242 165.972 78.3068C165.972 78.3068 165.972 78.3068 165.977 78.3068C165.989 78.2662 165.995 78.2314 166.006 78.1908C166.03 78.0865 166.053 77.9879 166.07 77.8835C166.07 77.8835 166.07 77.8835 166.07 77.8777C166.07 77.8777 166.07 77.8719 166.07 77.8661C166.07 77.8429 166.07 77.8139 166.076 77.7907C166.076 77.7444 166.076 77.6922 166.076 77.6458C166.076 77.6342 166.076 77.6226 166.076 77.6168C166.076 77.5994 166.076 77.5878 166.064 77.5704C166.064 77.5588 166.059 77.5414 166.053 77.5298C166.053 77.524 166.047 77.5124 166.041 77.5124C166.041 77.5066 166.035 77.5008 166.03 77.495C166.03 77.495 166.018 77.4892 166.018 77.4834C166.018 77.4834 166.012 77.4834 166.006 77.4776C166.006 77.4776 166.006 77.4776 166.001 77.4776C166.001 77.4776 165.983 77.4776 165.972 77.4718C165.96 77.4718 165.931 77.4718 165.919 77.4718C165.896 77.4718 165.879 77.4718 165.855 77.4718C165.855 77.4718 165.832 77.4718 165.821 77.4718C165.78 77.4776 165.739 77.4892 165.699 77.5008C165.699 77.5008 165.687 77.5008 165.681 77.5066C165.676 77.5066 165.664 77.5124 165.658 77.5182C165.658 77.5182 165.652 77.524 165.618 77.5472C165.588 77.5704 165.554 77.5994 165.525 77.6284C165.472 77.6748 165.42 77.7153 165.368 77.7617C165.368 77.7617 165.362 77.7733 165.356 77.7791C165.356 77.7791 165.339 77.8023 165.333 77.8255C165.345 77.8603 165.345 77.9009 165.345 77.9357L165.339 77.9183Z" fill="#C1282D"/>
<path d="M160.766 84.2095C163.424 84.2095 165.536 82.4352 165.983 79.9477C165.449 80.0115 164.927 79.8259 164.497 79.4259C164.068 79.0258 163.772 78.4633 163.656 77.8777C163.116 77.9357 162.611 77.7617 162.263 77.2863C161.985 76.9152 161.857 76.4513 161.747 75.9991C161.265 76.0686 160.766 75.8657 160.499 75.4308C160.133 74.8278 160.377 74.2131 160.702 73.6623C157.789 73.6971 155.566 76.0396 155.566 78.9562C155.566 81.8728 157.824 84.2037 160.772 84.2037L160.766 84.2095Z" fill="#C1282D"/>
<path d="M211.783 100.543C211.62 99.3258 211.336 98.1255 210.947 96.9601C209.583 92.878 207.186 89.2309 206.084 85.0445L198.766 83.4267C197.588 87.4508 195.475 92.5997 193.659 95.9859C193.496 95.955 193.365 95.9396 193.264 95.9396C190.171 95.9396 188.256 98.4908 188.256 101.436C188.256 101.819 188.291 102.202 188.349 102.584C185.981 104.678 183.381 105.605 180.938 105.605C178.338 105.605 176.522 104.625 175.634 102.857C185.749 102.712 189.626 97.2616 189.626 92.994C189.626 88.7264 185.749 85.0966 179.754 85.0966C171.27 85.0966 165.623 92.362 165.24 99.7085C163.134 103.408 161.19 105.507 159.275 105.507C158.044 105.507 157.505 104.724 158.044 102.909L163.296 85.7403H154.162L150.639 97.2442C148.005 102.463 145.422 105.513 143.263 105.513C141.743 105.513 141.006 103.895 140.565 102.277C144.54 100.364 147.732 96.3918 147.732 92.0257C147.732 88.0538 145.033 85.2532 140.762 85.2532C138.702 85.2532 136.34 85.9374 134.135 88.1988L137.57 77.0601H128.436L122.279 97.192C121.17 99.2852 119.737 100.845 117.584 101.639C118.222 99.9694 118.617 98.1545 118.617 96.3918C118.617 89.8165 113.562 85.2532 106.587 85.2532C97.9222 85.2532 91.5676 92.2286 90.7668 99.262C89.8789 100.323 88.8053 101.135 87.4357 101.639C88.074 99.9694 88.4687 98.1545 88.4687 96.3918C88.4687 89.8165 83.414 85.2532 76.4385 85.2532C69.4629 85.2532 63.5436 90.1412 61.4312 95.8642C57.7577 101.315 52.3955 104.191 47.2538 104.191C41.1139 104.191 37.5797 100.167 37.5797 93.6898C37.5797 85.201 43.6209 78.6257 49.3661 78.6257C50.8866 78.6257 51.966 79.1186 52.4593 79.8491C50.9388 80.8291 49.9581 82.499 49.9581 84.4124C49.9581 87.4044 52.3142 89.8107 55.506 89.8107C59.2375 89.8107 61.8374 86.523 61.8374 82.3076C61.8374 77.008 57.7113 71.0241 48.484 71.0241C35.4209 71.0241 27.2208 83.0904 27.2208 94.7219C27.2208 105.124 33.7495 111.891 43.9633 111.891C51.0549 111.891 56.6899 108.626 60.9263 103.785C62.2088 108.609 66.5729 111.891 72.5561 111.891C77.4656 111.891 81.6382 109.682 84.4876 106.446C87.1687 106.295 89.3914 105.698 91.2659 104.428C92.7573 108.893 96.9937 111.891 102.704 111.891C107.614 111.891 111.786 109.682 114.636 106.446C116.58 106.336 118.28 105.988 119.783 105.327L117.926 111.404H127.06L132.167 94.7219C133.491 93.2491 134.866 92.8548 135.754 92.8548C137.176 92.8548 137.913 93.9333 137.913 95.064C137.913 96.7339 136.392 98.6938 131.581 100.364C133.398 107.426 135.806 111.891 140.814 111.891C143.931 111.891 146.664 110.215 149.101 107.368C149.809 110.174 151.997 111.891 155.647 111.891C159.895 111.891 163.36 109.513 166.273 105.582C168.107 109.56 172.256 111.891 177.99 111.891C183.056 111.891 187.113 110.064 190.339 107.026C192.603 109.856 196.555 111.891 201.464 111.891C203.809 111.891 206.507 111.798 208.463 110.348C208.968 109.972 209.415 109.548 209.798 109.084C211.707 106.777 212.166 103.512 211.777 100.555L211.783 100.543ZM78.3071 100.735C77.425 102.26 76.1889 103.39 74.9064 103.976C74.918 103.993 74.9296 104.011 74.9412 104.028C74.3029 104.324 73.6181 104.469 72.9797 104.469C72.1614 104.469 71.1865 104.208 70.4959 103.379C69.0799 101.831 69.0567 98.8909 70.5713 96.2701C72.3239 93.2317 75.4809 91.7706 77.6165 93.0056C79.7521 94.2406 80.0655 97.7023 78.3071 100.735ZM108.455 100.735C107.573 102.26 106.337 103.39 105.054 103.976C105.066 103.993 105.078 104.011 105.089 104.028C104.451 104.324 103.766 104.469 103.128 104.469C102.31 104.469 101.335 104.208 100.644 103.379C99.228 101.831 99.2047 98.8909 100.719 96.2701C102.472 93.2317 105.629 91.7706 107.765 93.0056C109.9 94.2406 110.214 97.7023 108.455 100.735ZM179.621 92.8432C180.898 92.8432 181.391 93.6782 181.391 94.5595C181.391 96.2759 179.429 98.3343 175.059 98.63C175.402 95.3423 177.416 92.8432 179.627 92.8432H179.621ZM199.166 105.942C198.035 105.942 197.106 105.501 196.514 104.718C197.594 103.785 198.284 102.463 198.284 100.938C198.284 99.7607 197.843 98.6822 197.153 97.795C198.035 96.0787 198.87 94.2638 199.607 92.3968C200.785 95.8294 202.457 98.9721 202.457 101.865C202.457 104.515 201.081 105.936 199.166 105.936V105.942Z" fill="#C1282D"/>
</g>
<defs>
<filter id="filter0_d_2403_611" x="0.5" y="-10.5" width="240" height="150" filterUnits="userSpaceOnUse" color-interpolation-filters="sRGB">
<feFlood flood-opacity="0" result="BackgroundImageFix"/>
<feColorMatrix in="SourceAlpha" type="matrix" values="0 0 0 0 0 0 0 0 0 0 0 0 0 0 0 0 0 0 127 0" result="hardAlpha"/>
<feOffset/>
<feGaussianBlur stdDeviation="11.75"/>
<feComposite in2="hardAlpha" operator="out"/>
<feColorMatrix type="matrix" values="0 0 0 0 0 0 0 0 0 0 0 0 0 0 0 0 0 0 0.22 0"/>
<feBlend mode="normal" in2="BackgroundImageFix" result="effect1_dropShadow_2403_611"/>
<feBlend mode="normal" in="SourceGraphic" in2="effect1_dropShadow_2403_611" result="shape"/>
</filter>
</defs>
</svg>
