<svg width="41" height="56" viewBox="0 0 41 56" fill="none" xmlns="http://www.w3.org/2000/svg">
<path d="M36 15.5C36 24.0604 29.0604 31 20.5 31C11.9396 31 5 24.0604 5 15.5C5 6.93959 11.9396 0 20.5 0C29.0604 0 36 6.93959 36 15.5Z" fill="#FFF1E1"/>
<path d="M30.169 30C36.5411 32.7386 41 39.0423 41 46.3811C41 51.6935 36.667 56 31.3219 56H9.67811C4.33304 56 0 51.6935 0 46.3811C1.07038e-07 39.0863 4.4055 32.8143 10.7164 30.0497C13.3701 32.1703 16.742 33.4392 20.412 33.4392C24.1105 33.4392 27.506 32.1503 30.169 30Z" fill="#FFF1E1"/>
</svg>
